<svg width="69" height="50" viewBox="0 0 69 50" fill="white" xmlns="http://www.w3.org/2000/svg">
<path d="M5.44034 22.6719V21.7273H11.0689V22.6719H8.79972V29H7.70597V22.6719H5.44034ZM13.7873 29.1101C13.2499 29.1101 12.7871 28.9953 12.3988 28.7656C12.0129 28.5336 11.7146 28.2081 11.5039 27.7891C11.2956 27.3677 11.1914 26.8741 11.1914 26.3082C11.1914 25.7495 11.2956 25.2571 11.5039 24.831C11.7146 24.4048 12.0082 24.0722 12.3846 23.8331C12.7634 23.594 13.2061 23.4744 13.7127 23.4744C14.0205 23.4744 14.3188 23.5253 14.6076 23.6271C14.8964 23.7289 15.1557 23.8887 15.3853 24.1065C15.6149 24.3243 15.796 24.6072 15.9286 24.9553C16.0612 25.3009 16.1275 25.7211 16.1275 26.2159V26.5923H11.7915V25.7969H15.087C15.087 25.5175 15.0302 25.2701 14.9165 25.0547C14.8029 24.8369 14.6431 24.6652 14.4371 24.5398C14.2335 24.4143 13.9944 24.3516 13.7198 24.3516C13.4215 24.3516 13.1611 24.425 12.9386 24.5717C12.7184 24.7161 12.5479 24.9055 12.4272 25.1399C12.3088 25.3719 12.2496 25.6241 12.2496 25.8963V26.5178C12.2496 26.8823 12.3136 27.1925 12.4414 27.4482C12.5716 27.7038 12.7527 27.8991 12.9847 28.0341C13.2167 28.1667 13.4878 28.233 13.7979 28.233C13.9992 28.233 14.1826 28.2045 14.3484 28.1477C14.5141 28.0885 14.6573 28.0009 14.7781 27.8849C14.8988 27.7689 14.9911 27.6257 15.055 27.4553L16.06 27.6364C15.9795 27.9323 15.8351 28.1915 15.6268 28.4141C15.4208 28.6342 15.1616 28.8059 14.8491 28.929C14.5389 29.0497 14.185 29.1101 13.7873 29.1101ZM17.3056 29V23.5455H18.3319V24.4119H18.3887C18.4881 24.1184 18.6633 23.8875 18.9142 23.7195C19.1676 23.549 19.454 23.4638 19.7736 23.4638C19.8399 23.4638 19.918 23.4661 20.008 23.4709C20.1003 23.4756 20.1725 23.4815 20.2246 23.4886V24.5043C20.182 24.4924 20.1062 24.4794 19.9973 24.4652C19.8884 24.4486 19.7795 24.4403 19.6706 24.4403C19.4197 24.4403 19.196 24.4936 18.9995 24.6001C18.8053 24.7043 18.6515 24.8499 18.5378 25.0369C18.4242 25.2216 18.3674 25.4323 18.3674 25.669V29H17.3056ZM21.1435 29V23.5455H22.1697V24.4119H22.2266C22.326 24.1184 22.5012 23.8875 22.7521 23.7195C23.0054 23.549 23.2919 23.4638 23.6115 23.4638C23.6778 23.4638 23.7559 23.4661 23.8459 23.4709C23.9382 23.4756 24.0104 23.4815 24.0625 23.4886V24.5043C24.0199 24.4924 23.9441 24.4794 23.8352 24.4652C23.7263 24.4486 23.6174 24.4403 23.5085 24.4403C23.2576 24.4403 23.0339 24.4936 22.8374 24.6001C22.6432 24.7043 22.4893 24.8499 22.3757 25.0369C22.2621 25.2216 22.2053 25.4323 22.2053 25.669V29H21.1435ZM26.5199 29.1207C26.1742 29.1207 25.8617 29.0568 25.5824 28.929C25.303 28.7988 25.0817 28.6106 24.9183 28.3643C24.7573 28.1181 24.6768 27.8163 24.6768 27.4588C24.6768 27.151 24.736 26.8977 24.8544 26.6989C24.9728 26.5 25.1326 26.3426 25.3338 26.2266C25.535 26.1106 25.7599 26.023 26.0085 25.9638C26.2571 25.9046 26.5104 25.8596 26.7685 25.8288C27.0952 25.791 27.3603 25.7602 27.5639 25.7365C27.7675 25.7105 27.9155 25.669 28.0078 25.6122C28.1001 25.5554 28.1463 25.4631 28.1463 25.3352V25.3104C28.1463 25.0002 28.0587 24.7599 27.8835 24.5895C27.7107 24.419 27.4527 24.3338 27.1094 24.3338C26.7519 24.3338 26.4702 24.4131 26.2642 24.5717C26.0606 24.728 25.9197 24.902 25.8416 25.0938L24.8438 24.8665C24.9621 24.535 25.1349 24.2675 25.3622 24.0639C25.5919 23.858 25.8558 23.7088 26.1541 23.6165C26.4524 23.5218 26.7661 23.4744 27.0952 23.4744C27.313 23.4744 27.5438 23.5005 27.7876 23.5526C28.0339 23.6023 28.2635 23.6946 28.4766 23.8295C28.692 23.9645 28.8684 24.1574 29.0057 24.4084C29.143 24.657 29.2116 24.9801 29.2116 25.3778V29H28.1747V28.2543H28.1321C28.0634 28.3916 27.9605 28.5265 27.8232 28.6591C27.6858 28.7917 27.5095 28.9018 27.294 28.9893C27.0786 29.0769 26.8205 29.1207 26.5199 29.1207ZM26.7507 28.2685C27.0443 28.2685 27.2952 28.2105 27.5036 28.0945C27.7143 27.9785 27.8741 27.8269 27.983 27.6399C28.0942 27.4505 28.1499 27.2481 28.1499 27.0327V26.3295C28.112 26.3674 28.0386 26.4029 27.9297 26.4361C27.8232 26.4669 27.7012 26.4941 27.5639 26.5178C27.4266 26.5391 27.2929 26.5592 27.1626 26.5781C27.0324 26.5947 26.9235 26.6089 26.8359 26.6207C26.63 26.6468 26.4418 26.6906 26.2713 26.7521C26.1032 26.8137 25.9683 26.9025 25.8665 27.0185C25.767 27.1321 25.7173 27.2836 25.7173 27.473C25.7173 27.7358 25.8144 27.9347 26.0085 28.0696C26.2027 28.2022 26.45 28.2685 26.7507 28.2685ZM35.712 29H33.3576V21.7273H35.7866C36.4992 21.7273 37.1112 21.8729 37.6225 22.1641C38.1339 22.4529 38.5257 22.8684 38.7979 23.4105C39.0726 23.9503 39.2099 24.5978 39.2099 25.353C39.2099 26.1106 39.0714 26.7616 38.7944 27.3061C38.5198 27.8506 38.122 28.2696 37.6012 28.5632C37.0804 28.8544 36.4506 29 35.712 29ZM34.4549 28.0412H35.6516C36.2056 28.0412 36.6661 27.937 37.033 27.7287C37.4 27.518 37.6746 27.2138 37.8569 26.8161C38.0392 26.416 38.1303 25.9283 38.1303 25.353C38.1303 24.7824 38.0392 24.2983 37.8569 23.9006C37.677 23.5028 37.4083 23.201 37.0508 22.995C36.6933 22.7891 36.2494 22.6861 35.7191 22.6861H34.4549V28.0412ZM42.84 29.1101C42.3026 29.1101 41.8398 28.9953 41.4515 28.7656C41.0656 28.5336 40.7673 28.2081 40.5566 27.7891C40.3483 27.3677 40.2441 26.8741 40.2441 26.3082C40.2441 25.7495 40.3483 25.2571 40.5566 24.831C40.7673 24.4048 41.0609 24.0722 41.4373 23.8331C41.8161 23.594 42.2588 23.4744 42.7654 23.4744C43.0732 23.4744 43.3715 23.5253 43.6603 23.6271C43.9492 23.7289 44.2084 23.8887 44.438 24.1065C44.6677 24.3243 44.8488 24.6072 44.9814 24.9553C45.1139 25.3009 45.1802 25.7211 45.1802 26.2159V26.5923H40.8443V25.7969H44.1397C44.1397 25.5175 44.0829 25.2701 43.9693 25.0547C43.8556 24.8369 43.6958 24.6652 43.4899 24.5398C43.2863 24.4143 43.0472 24.3516 42.7725 24.3516C42.4743 24.3516 42.2138 24.425 41.9913 24.5717C41.7711 24.7161 41.6007 24.9055 41.4799 25.1399C41.3616 25.3719 41.3024 25.6241 41.3024 25.8963V26.5178C41.3024 26.8823 41.3663 27.1925 41.4941 27.4482C41.6243 27.7038 41.8055 27.8991 42.0375 28.0341C42.2695 28.1667 42.5405 28.233 42.8507 28.233C43.0519 28.233 43.2354 28.2045 43.4011 28.1477C43.5668 28.0885 43.71 28.0009 43.8308 27.8849C43.9515 27.7689 44.0439 27.6257 44.1078 27.4553L45.1127 27.6364C45.0323 27.9323 44.8878 28.1915 44.6795 28.4141C44.4735 28.6342 44.2143 28.8059 43.9018 28.929C43.5917 29.0497 43.2377 29.1101 42.84 29.1101ZM48.6559 29.1101C48.128 29.1101 47.6734 28.9905 47.2923 28.7514C46.9135 28.5099 46.6223 28.1773 46.4187 27.7536C46.2151 27.3298 46.1133 26.8445 46.1133 26.2976C46.1133 25.7436 46.2174 25.2547 46.4258 24.831C46.6341 24.4048 46.9277 24.0722 47.3065 23.8331C47.6853 23.594 48.1315 23.4744 48.6452 23.4744C49.0595 23.4744 49.4289 23.5514 49.7532 23.7053C50.0775 23.8568 50.3391 24.0698 50.538 24.3445C50.7392 24.6191 50.8588 24.9399 50.8967 25.3068H49.8633C49.8065 25.0511 49.6763 24.831 49.4727 24.6463C49.2714 24.4616 49.0015 24.3693 48.663 24.3693C48.3671 24.3693 48.1078 24.4474 47.8853 24.6037C47.6651 24.7576 47.4935 24.9777 47.3704 25.2642C47.2473 25.5483 47.1857 25.8845 47.1857 26.2727C47.1857 26.6705 47.2461 27.0137 47.3668 27.3026C47.4876 27.5914 47.658 27.8151 47.8782 27.9737C48.1007 28.1323 48.3623 28.2116 48.663 28.2116C48.8642 28.2116 49.0465 28.175 49.2099 28.1016C49.3756 28.0258 49.5141 27.9181 49.6254 27.7784C49.739 27.6387 49.8183 27.4706 49.8633 27.2741H50.8967C50.8588 27.6269 50.744 27.9418 50.5522 28.2188C50.3604 28.4957 50.1036 28.7135 49.7816 28.8722C49.462 29.0308 49.0868 29.1101 48.6559 29.1101ZM54.3297 29.1101C53.8184 29.1101 53.3721 28.9929 52.9909 28.7585C52.6098 28.5241 52.3139 28.1963 52.1032 27.7749C51.8925 27.3535 51.7871 26.861 51.7871 26.2976C51.7871 25.7318 51.8925 25.237 52.1032 24.8132C52.3139 24.3894 52.6098 24.0604 52.9909 23.826C53.3721 23.5916 53.8184 23.4744 54.3297 23.4744C54.8411 23.4744 55.2873 23.5916 55.6685 23.826C56.0497 24.0604 56.3456 24.3894 56.5563 24.8132C56.767 25.237 56.8723 25.7318 56.8723 26.2976C56.8723 26.861 56.767 27.3535 56.5563 27.7749C56.3456 28.1963 56.0497 28.5241 55.6685 28.7585C55.2873 28.9929 54.8411 29.1101 54.3297 29.1101ZM54.3333 28.2188C54.6647 28.2188 54.9393 28.1312 55.1571 27.956C55.3749 27.7808 55.5359 27.5476 55.6401 27.2564C55.7466 26.9652 55.7999 26.6444 55.7999 26.294C55.7999 25.946 55.7466 25.6264 55.6401 25.3352C55.5359 25.0417 55.3749 24.8061 55.1571 24.6286C54.9393 24.451 54.6647 24.3622 54.3333 24.3622C53.9995 24.3622 53.7225 24.451 53.5023 24.6286C53.2845 24.8061 53.1223 25.0417 53.0158 25.3352C52.9116 25.6264 52.8596 25.946 52.8596 26.294C52.8596 26.6444 52.9116 26.9652 53.0158 27.2564C53.1223 27.5476 53.2845 27.7808 53.5023 27.956C53.7225 28.1312 53.9995 28.2188 54.3333 28.2188ZM58.0575 29V23.5455H59.0838V24.4119H59.1406C59.2401 24.1184 59.4152 23.8875 59.6662 23.7195C59.9195 23.549 60.206 23.4638 60.5256 23.4638C60.5919 23.4638 60.67 23.4661 60.7599 23.4709C60.8523 23.4756 60.9245 23.4815 60.9766 23.4886V24.5043C60.9339 24.4924 60.8582 24.4794 60.7493 24.4652C60.6404 24.4486 60.5315 24.4403 60.4226 24.4403C60.1716 24.4403 59.9479 24.4936 59.7514 24.6001C59.5573 24.7043 59.4034 24.8499 59.2898 25.0369C59.1761 25.2216 59.1193 25.4323 59.1193 25.669V29H58.0575Z" fill="black"/>
<path d="M24.1006 1.91684C25.2807 1.91684 26.4609 1.91684 27.641 1.91684C28.4524 1.91684 29.2714 1.75538 30.0851 1.85999C30.4252 1.90372 30.877 1.97651 31.1976 2.10766C31.4099 2.1945 31.6423 2.28546 31.8431 2.39592C31.9354 2.44666 32.0208 2.61895 32.107 2.64358C32.4125 2.73086 32.7995 2.50148 33.1261 2.50148C33.7236 2.50148 34.244 2.43595 34.811 2.20916C35.1704 2.06538 35.5739 1.62451 35.9519 1.62451C36.3254 1.62451 36.6989 1.62451 37.0724 1.62451C37.4121 1.62451 37.7518 1.62451 38.0915 1.62451C38.3737 1.62451 39.7569 1.80973 39.8861 1.55143" stroke="black" stroke-opacity="0.5" stroke-width="0.5" stroke-linecap="round"/>
<path d="M48.2903 3.30537C47.4741 3.35979 46.6685 3.84918 45.8949 4.09302C45.3438 4.26675 44.7083 4.28017 44.1329 4.32444C43.4866 4.37415 42.8189 4.3285 42.1719 4.3285C41.3534 4.3285 40.5841 4.41517 39.7805 4.56398C39.3343 4.64662 38.9405 4.84006 38.4772 4.84006C37.9964 4.84006 37.3955 4.94364 36.8979 5.00247C35.8062 5.13153 34.7423 5.13239 33.6458 5.13239C32.691 5.13239 31.9427 4.84466 31.0311 4.61676C30.5361 4.49302 29.9471 4.10926 29.4396 4.10926C28.6823 4.10926 27.922 3.96917 27.17 3.89001C26.3816 3.80703 25.607 3.83378 24.8152 3.81693C24.4591 3.80936 24.1523 3.69337 23.8164 3.60175C23.403 3.48901 23.0062 3.4503 22.5822 3.39469C21.9916 3.31724 21.2157 3.30904 20.6983 3.63829C20.3591 3.85418 20.0352 4.12741 19.6833 4.3285C19.0584 4.68557 18.4723 4.98623 17.7264 4.98623C16.9127 4.98623 16.1327 4.91314 15.3309 4.91314" stroke="black" stroke-opacity="0.5" stroke-width="0.5" stroke-linecap="round"/>
<path d="M9.99604 7.39789C10.8771 7.39789 11.7274 7.66935 12.6107 7.69021C13.5691 7.71285 14.559 7.73005 15.4974 7.94194C16.4475 8.15649 17.4467 8.50134 18.4409 8.2302C19.8291 7.85162 21.2802 7.98254 22.7202 7.98254C23.5228 7.98254 24.2542 8.21852 25.0385 8.2708C25.4555 8.2986 25.8836 8.27486 26.3012 8.27486C28.4327 8.27486 30.5642 8.27486 32.6957 8.27486C33.418 8.27486 34.1203 8.05562 34.8435 8.05562C35.3746 8.05562 35.8958 8.1287 36.4147 8.1287C38.1008 8.1287 39.7693 7.96273 41.4532 7.98254C41.8374 7.98706 42.2126 8.05562 42.5982 8.05562C43.1259 8.05562 43.6053 7.93053 44.1247 7.85262C44.5966 7.78183 45.5528 7.73731 45.8624 8.20178C45.9431 8.32282 46.1431 8.27486 46.2806 8.27486C46.8118 8.27486 47.6885 8.44963 48.1158 8.0881C49.067 7.2832 50.0071 7.02809 51.1973 7.47097C51.9488 7.75061 52.4391 7.36942 53.0771 7.03655C53.356 6.89104 53.7549 6.95941 54.0637 6.95941C54.4585 6.95941 54.5466 7.13603 54.8311 7.35729C55.2224 7.66167 55.9366 7.37825 56.3861 7.48721C56.6552 7.55245 57.1422 7.47665 57.3118 7.76736C57.4518 8.0074 57.2233 7.98254 57.06 7.98254" stroke="black" stroke-opacity="0.5" stroke-width="0.5" stroke-linecap="round"/>
<path d="M61.2256 10.9788C59.6039 10.9788 57.9569 11.0777 56.3495 10.8286C55.1412 10.6414 53.9905 10.3211 52.7604 10.3211C52.2901 10.3211 51.7924 10.2758 51.3232 10.3252C51.024 10.3567 50.9631 10.6051 50.8035 10.8002C50.3917 11.3035 49.6186 11.4666 49.0049 11.4945C48.2373 11.5294 47.4895 11.6366 46.7191 11.6366C45.3346 11.6366 43.9502 11.6366 42.5657 11.6366C41.8971 11.6366 41.2188 11.6039 40.5519 11.6528C40.0592 11.689 39.5671 11.7342 39.0741 11.7665C38.7692 11.7865 38.4046 11.7224 38.1078 11.799C37.2112 12.0304 36.1262 11.5275 35.2495 11.3199C34.7083 11.1917 34.1691 11.1981 33.6174 11.1981C32.9931 11.1981 32.3156 11.2433 31.7416 11.5229C31.4408 11.6694 31.2005 11.9394 30.9296 12.1319C30.4972 12.4392 30.1043 12.4405 29.5979 12.4405C28.6688 12.4405 27.7547 12.3051 26.829 12.2943C25.2275 12.2757 23.7785 12.2914 22.2533 11.7503C21.332 11.4233 20.5401 11.7469 19.5859 11.8761C18.7909 11.9838 17.9638 11.9289 17.162 11.9289C16.3941 11.9289 15.8011 12.255 15.0102 11.8518C14.0388 11.3566 13.7146 10.5417 13.1426 9.6837C13.0567 9.55493 12.9587 9.3609 12.8462 9.55783C12.5021 10.16 11.8129 10.6292 11.2709 11.0357C11.1055 11.1598 10.9516 11.4297 10.735 11.4742C10.3643 11.5502 9.94281 11.4848 9.56568 11.5067C9.16669 11.5298 8.77184 11.5635 8.37203 11.5635C7.86046 11.5635 7.3489 11.5635 6.83733 11.5635C6.15224 11.5635 5.48579 11.7097 4.80731 11.7097" stroke="black" stroke-opacity="0.5" stroke-width="0.5" stroke-linecap="round"/>
<path d="M2.10332 14.9983C2.44648 14.9983 2.79634 15.0694 3.13458 15.112C4.26569 15.2544 5.38572 15.2906 6.52471 15.2906C6.84466 15.2906 7.19125 15.2551 7.5113 15.2906C7.71998 15.3138 8.0284 15.7619 8.17715 15.8793C8.79656 16.3683 9.246 17.0024 10.0854 16.9674C11.0236 16.9283 11.8116 16.5478 12.7082 16.33C13.3549 16.1728 13.9802 16.1676 14.6407 16.1676C15.768 16.1676 16.9007 16.4983 17.9862 16.533C21.2289 16.6365 24.46 16.8253 27.7059 16.8253C28.8725 16.8253 30.0391 16.8253 31.2057 16.8253C31.5482 16.8253 31.9482 16.8807 32.2816 16.7806C32.4684 16.7246 32.5805 16.5516 32.7769 16.537C33.8181 16.4599 34.8428 16.476 35.8829 16.33C36.4827 16.2458 37.1044 16.3259 37.653 16.0661C37.9725 15.9148 38.5178 15.959 38.8467 15.9321C39.8252 15.8519 40.806 15.801 41.7862 15.7453C42.5279 15.7033 43.2675 15.659 43.9461 15.9889C44.2918 16.157 44.6508 16.3578 45.0098 16.4924C45.2644 16.5878 45.9656 16.3686 46.1872 16.3381C47.3825 16.1734 48.5589 15.9655 49.7438 15.7453C50.7784 15.5531 52.5167 15.1416 53.4385 15.9159C53.5971 16.0491 54.0155 16.6774 54.2424 16.6304C54.7941 16.5163 55.4128 15.9689 55.8867 15.6966C56.6686 15.2473 57.4138 14.7291 58.2009 14.2918C58.9762 13.8611 59.5357 13.7793 60.2593 14.3081C60.8121 14.712 61.4056 14.6568 62.0458 14.8521C62.1765 14.892 62.3079 14.93 62.4274 14.9983C62.4862 15.0319 62.4435 15.1218 62.5086 15.1404C62.8804 15.2466 63.3292 15.3152 63.6698 15.5099C64.2749 15.8557 65.0727 15.7043 65.7566 15.8753" stroke="black" stroke-opacity="0.5" stroke-width="0.5" stroke-linecap="round"/>
<path d="M43.8994 49.0832C42.7193 49.0832 41.5391 49.0832 40.359 49.0832C39.5476 49.0832 38.7286 49.2446 37.9149 49.14C37.5748 49.0963 37.123 49.0235 36.8024 48.8923C36.5901 48.8055 36.3577 48.7145 36.1569 48.6041C36.0646 48.5533 35.9792 48.381 35.893 48.3564C35.5875 48.2691 35.2005 48.4985 34.8739 48.4985C34.2764 48.4985 33.756 48.564 33.189 48.7908C32.8296 48.9346 32.4261 49.3755 32.0481 49.3755C31.6746 49.3755 31.3011 49.3755 30.9276 49.3755C30.5879 49.3755 30.2482 49.3755 29.9085 49.3755C29.6263 49.3755 28.2431 49.1903 28.1139 49.4486" stroke="black" stroke-opacity="0.5" stroke-width="0.5" stroke-linecap="round"/>
<path d="M19.7097 47.6946C20.5259 47.6402 21.3315 47.1508 22.1051 46.907C22.6562 46.7332 23.2917 46.7198 23.8671 46.6756C24.5134 46.6259 25.1811 46.6715 25.8281 46.6715C26.6466 46.6715 27.4159 46.5848 28.2195 46.436C28.6657 46.3534 29.0595 46.1599 29.5228 46.1599C30.0036 46.1599 30.6045 46.0564 31.1021 45.9975C32.1938 45.8685 33.2577 45.8676 34.3542 45.8676C35.309 45.8676 36.0573 46.1553 36.9689 46.3832C37.4639 46.507 38.0529 46.8907 38.5604 46.8907C39.3177 46.8907 40.078 47.0308 40.83 47.11C41.6184 47.193 42.393 47.1662 43.1848 47.1831C43.5409 47.1906 43.8477 47.3066 44.1836 47.3982C44.597 47.511 44.9938 47.5497 45.4178 47.6053C46.0084 47.6828 46.7843 47.691 47.3017 47.3617C47.6409 47.1458 47.9648 46.8726 48.3167 46.6715C48.9416 46.3144 49.5277 46.0138 50.2736 46.0138C51.0873 46.0138 51.8673 46.0869 52.6691 46.0869" stroke="black" stroke-opacity="0.5" stroke-width="0.5" stroke-linecap="round"/>
<path d="M58.004 43.6021C57.1229 43.6021 56.2726 43.3307 55.3893 43.3098C54.4309 43.2872 53.441 43.27 52.5026 43.0581C51.5525 42.8435 50.5533 42.4987 49.5591 42.7698C48.1709 43.1484 46.7198 43.0175 45.2798 43.0175C44.4772 43.0175 43.7458 42.7815 42.9615 42.7292C42.5445 42.7014 42.1164 42.7251 41.6988 42.7251C39.5673 42.7251 37.4358 42.7251 35.3043 42.7251C34.5821 42.7251 33.8797 42.9444 33.1565 42.9444C32.6255 42.9444 32.1043 42.8713 31.5853 42.8713C29.8992 42.8713 28.2307 43.0373 26.5468 43.0175C26.1626 43.0129 25.7874 42.9444 25.4018 42.9444C24.8741 42.9444 24.3947 43.0695 23.8753 43.1474C23.4034 43.2182 22.4472 43.2627 22.1376 42.7982C22.0569 42.6772 21.8569 42.7251 21.7194 42.7251C21.1882 42.7251 20.3115 42.5504 19.8842 42.9119C18.933 43.7168 17.9929 43.9719 16.8027 43.529C16.0512 43.2494 15.5609 43.6306 14.9229 43.9635C14.644 44.109 14.2451 44.0406 13.9363 44.0406C13.5415 44.0406 13.4534 43.864 13.1689 43.6427C12.7776 43.3383 12.0634 43.6218 11.6139 43.5128C11.3448 43.4476 10.8578 43.5234 10.6883 43.2327C10.5482 42.9926 10.7767 43.0175 10.94 43.0175" stroke="black" stroke-opacity="0.5" stroke-width="0.5" stroke-linecap="round"/>
<path d="M6.77436 40.0212C8.39613 40.0212 10.0431 39.9223 11.6505 40.1714C12.8588 40.3586 14.0095 40.6789 15.2396 40.6789C15.7099 40.6789 16.2076 40.7242 16.6768 40.6748C16.976 40.6433 17.0369 40.3949 17.1965 40.1998C17.6083 39.6965 18.3814 39.5334 18.9951 39.5055C19.7627 39.4706 20.5105 39.3634 21.2809 39.3634C22.6654 39.3634 24.0498 39.3634 25.4343 39.3634C26.1029 39.3634 26.7812 39.3961 27.4481 39.3472C27.9408 39.311 28.4329 39.2658 28.9259 39.2335C29.2308 39.2135 29.5954 39.2776 29.8922 39.201C30.7888 38.9696 31.8738 39.4725 32.7505 39.6801C33.2917 39.8083 33.8309 39.8019 34.3826 39.8019C35.0069 39.8019 35.6844 39.7567 36.2584 39.4771C36.5592 39.3306 36.7995 39.0606 37.0704 38.8681C37.5028 38.5608 37.8957 38.5595 38.4021 38.5595C39.3312 38.5595 40.2453 38.6949 41.171 38.7057C42.7725 38.7243 44.2215 38.7086 45.7467 39.2497C46.668 39.5767 47.4599 39.2531 48.4141 39.1239C49.2091 39.0162 50.0362 39.0711 50.838 39.0711C51.6059 39.0711 52.1989 38.745 52.9898 39.1482C53.9612 39.6435 54.2854 40.4583 54.8574 41.3163C54.9433 41.4451 55.0413 41.6391 55.1538 41.4422C55.4979 40.84 56.1871 40.3708 56.7291 39.9643C56.8945 39.8402 57.0484 39.5703 57.265 39.5258C57.6357 39.4498 58.0572 39.5152 58.4343 39.4934C58.8333 39.4702 59.2282 39.4365 59.628 39.4365C60.1395 39.4365 60.6511 39.4365 61.1627 39.4365C61.8478 39.4365 62.5142 39.2904 63.1927 39.2904" stroke="black" stroke-opacity="0.5" stroke-width="0.5" stroke-linecap="round"/>
<path d="M65.8967 36.0017C65.5535 36.0017 65.2037 35.9306 64.8654 35.888C63.7343 35.7456 62.6143 35.7094 61.4753 35.7094C61.1553 35.7094 60.8087 35.745 60.4887 35.7094C60.28 35.6862 59.9716 35.2381 59.8228 35.1207C59.2034 34.6317 58.754 33.9976 57.9146 34.0326C56.9764 34.0717 56.1884 34.4522 55.2918 34.67C54.6451 34.8272 54.0198 34.8324 53.3593 34.8324C52.232 34.8324 51.0993 34.5017 50.0138 34.467C46.7711 34.3635 43.54 34.1747 40.2941 34.1747C39.1275 34.1747 37.9609 34.1747 36.7943 34.1747C36.4517 34.1747 36.0518 34.1193 35.7184 34.2194C35.5316 34.2754 35.4194 34.4484 35.2231 34.463C34.1819 34.5401 33.1572 34.524 32.1171 34.67C31.5173 34.7542 30.8956 34.6741 30.347 34.9339C30.0275 35.0852 29.4821 35.041 29.1533 35.0679C28.1748 35.1481 27.194 35.1991 26.2138 35.2547C25.4721 35.2967 24.7325 35.341 24.0539 35.0111C23.7082 34.843 23.3492 34.6423 22.9902 34.5076C22.7356 34.4122 22.0344 34.6314 21.8127 34.6619C20.6175 34.8266 19.4411 35.0345 18.2562 35.2547C17.2216 35.4469 15.4833 35.8584 14.5615 35.0841C14.4029 34.9509 13.9845 34.3226 13.7576 34.3696C13.2059 34.4837 12.5871 35.0311 12.1133 35.3034C11.3314 35.7527 10.5862 36.2709 9.79909 36.7082C9.02382 37.1389 8.46426 37.2207 7.74065 36.6919C7.1879 36.288 6.59438 36.3432 5.95423 36.1479C5.82351 36.108 5.69205 36.07 5.57259 36.0017C5.51377 35.9681 5.55645 35.8782 5.49139 35.8596C5.11959 35.7534 4.6708 35.6848 4.33022 35.4901C3.72507 35.1443 2.92725 35.2957 2.24335 35.1247" stroke="black" stroke-opacity="0.5" stroke-width="0.5" stroke-linecap="round"/>
</svg>
